<svg xmlns="http://www.w3.org/2000/svg" viewBox="0 0 800 450" width="100%" height="100%">
  <defs>
    <linearGradient id="bg3" x1="0" y1="0" x2="1" y2="1">
      <stop offset="0%" stop-color="#060914"/>
      <stop offset="100%" stop-color="#0f172a"/>
    </linearGradient>
  </defs>
  <rect width="800" height="450" fill="url(#bg3)"/>
  <rect x="25" y="25" width="750" height="400" rx="18" fill="#0f172a" stroke="#1e293b" stroke-width="1.5"/>

  <!-- Telegram Header -->
  <circle cx="65" cy="65" r="20" fill="#0284c7"/>
  <path d="M57 65 L73 58 L69 72 L65 67 Z" fill="#ffffff"/>
  <text x="96" y="65" fill="#ffffff" font-family="system-ui, sans-serif" font-size="18" font-weight="700">Docker VM Manager Bot</text>
  <text x="96" y="82" fill="#38bdf8" font-family="system-ui, sans-serif" font-size="12">bot · @docker_cloud_bot · Online</text>

  <!-- User Message -->
  <rect x="490" y="110" width="260" height="40" rx="12" fill="#0284c7"/>
  <text x="510" y="135" fill="#ffffff" font-family="monospace" font-size="14">/vm create ubuntu-dev</text>

  <!-- Bot Message -->
  <rect x="50" y="165" width="560" height="235" rx="14" fill="#1e293b" stroke="#334155" stroke-width="1"/>
  <text x="75" y="198" fill="#38bdf8" font-family="system-ui, sans-serif" font-size="15" font-weight="700">🚀 Contenedor aprovisionado exitosamente</text>
  <text x="75" y="225" fill="#cbd5e1" font-family="monospace" font-size="12">ID: d8f2910a3c · Imagen: ubuntu:24.04-lts</text>
  <text x="75" y="245" fill="#cbd5e1" font-family="monospace" font-size="12">Recursos: 2 vCPU · 4.0 GB RAM · 20 GB NVMe</text>
  <text x="75" y="265" fill="#4ade80" font-family="monospace" font-size="12">SSH: ssh root@vm.eljoker.dev -p 2201</text>
  <text x="75" y="285" fill="#94a3b8" font-family="monospace" font-size="11">Estado: Up 2 mins · CPU 4.2% · RAM 420 MB / 4.0 GB</text>

  <!-- Inline Buttons -->
  <rect x="75" y="310" width="115" height="34" rx="8" fill="#0f172a" stroke="#38bdf8" stroke-width="1.2"/>
  <text x="132" y="332" fill="#38bdf8" font-family="system-ui, sans-serif" font-size="12" font-weight="600" text-anchor="middle">Web Terminal</text>

  <rect x="200" y="310" width="115" height="34" rx="8" fill="#0f172a" stroke="#475569" stroke-width="1"/>
  <text x="257" y="332" fill="#cbd5e1" font-family="system-ui, sans-serif" font-size="12" text-anchor="middle">Reiniciar</text>

  <rect x="325" y="310" width="115" height="34" rx="8" fill="#0f172a" stroke="#ef4444" stroke-width="1"/>
  <text x="382" y="332" fill="#f87171" font-family="system-ui, sans-serif" font-size="12" text-anchor="middle">Destruir</text>
</svg>